# xmcd
#
# Track frame offsets:
#	150
#	13015
#	29795
#	43752
#	61860
#	75452
#	87762
#	106602
#	120940
#	136235
#
# Disc length: 1983 seconds
#
# Revision: 0
# Processed by: cddbd v1.5.1PL0 Copyright (c) Steve Scherf et al.
# Submitted via: dBpowerAMP V4.0
#
DISCID=7007bd0a
DTITLE=George Jones - I Lived To Tell It All
DYEAR=1996
DGENRE=Country
TTITLE0=Honky Tonk Song
TTITLE1=Back Down To Hung Up On You
TTITLE2=Billy B. Bad
TTITLE3=Hundred Proof Memories
TTITLE4=It Ain't Gonna Worry My Mind
TTITLE5=The Lone Ranger
TTITLE6=Tied To A Stone
TTITLE7=I'll Give You Something To Drink About
TTITLE8=I Must Have Done Something Bad
TTITLE9=Hello Heart
EXTD=
EXTT0=
EXTT1=
EXTT2=
EXTT3=
EXTT4=
EXTT5=
EXTT6=
EXTT7=
EXTT8=
EXTT9=
PLAYORDER=
